<?xml version="1.0" encoding="UTF-8"?>
<svg width="20px" height="20px" viewBox="0 0 20 20" version="1.1" xmlns="http://www.w3.org/2000/svg" xmlns:xlink="http://www.w3.org/1999/xlink">
    <title>男</title>
    <g id="控件" stroke="none" stroke-width="1" fill="none" fill-rule="evenodd">
        <g id="头像\男真实64" transform="translate(-44.000000, 0.000000)">
            <g id="男" transform="translate(44.000000, 0.000000)">
                <circle id="椭圆形" stroke="#FFFFFF" fill="#6596FA" cx="10" cy="10" r="9.5"></circle>
                <g transform="translate(4.563809, 5.012882)" fill-rule="nonzero">
                    <rect id="矩形" fill="#000000" opacity="0" x="0" y="0" width="10.6624595" height="10.6624595"></rect>
                    <path d="M9.92674983,0.346529935 C9.88943122,0.335867476 9.85211262,0.330536246 9.81479401,0.330536246 L7.15451035,0.330536246 C6.85596148,0.330536246 6.61605615,0.570441585 6.61605615,0.868990453 C6.61605615,1.16753932 6.85596148,1.40744466 7.15451035,1.40744466 L8.43933673,1.40744466 L6.71734951,3.12943188 C6.07760194,2.70826472 5.31523608,2.45769692 4.4942267,2.45769692 C2.26577265,2.45769692 0.45315453,4.27031505 0.45315453,6.49876909 C0.45315453,8.72722313 2.26577265,10.5398413 4.4942267,10.5398413 C6.72268074,10.5398413 8.53529886,8.72722313 8.53529886,6.49876909 C8.53529886,5.4805042 8.15678155,4.54753899 7.53302767,3.8331542 L9.18570889,2.18047298 L9.18570889,3.42798074 C9.18570889,3.72652961 9.42561423,3.96643495 9.7241631,3.96643495 C10.022712,3.96643495 10.2626173,3.72652961 10.2626173,3.42798074 L10.2626173,0.773028317 C10.2572861,0.570441585 10.1186741,0.394511003 9.92674983,0.346529935 Z M4.48889547,9.56955744 C2.79889563,9.56955744 1.42343835,8.19410016 1.42343835,6.50410032 C1.42343835,4.81410048 2.79889563,3.4386432 4.48889547,3.4386432 C6.1788953,3.4386432 7.55435258,4.81410048 7.55435258,6.50410032 C7.55435258,8.19410016 6.1788953,9.56955744 4.48889547,9.56955744 Z" id="形状" fill="#FFFFFF"></path>
                </g>
            </g>
        </g>
    </g>
</svg>