<?xml version="1.0" encoding="UTF-8"?>
<svg width="20px" height="20px" viewBox="0 0 20 20" version="1.1" xmlns="http://www.w3.org/2000/svg" xmlns:xlink="http://www.w3.org/1999/xlink">
    <title>女</title>
    <g id="控件" stroke="none" stroke-width="1" fill="none" fill-rule="evenodd">
        <g id="头像/女默认64" transform="translate(-44.000000, 0.000000)">
            <g id="女" transform="translate(44.000000, 0.000000)">
                <circle id="椭圆形" stroke="#FFFFFF" fill="#E65A63" cx="10" cy="10" r="9.5"></circle>
                <g id="v" transform="translate(4.734132, 5.000000)" fill="#FFFFFF" fill-rule="nonzero">
                    <g id="女" transform="translate(5.064323, 5.064323) rotate(-360.000000) translate(-5.064323, -5.064323) ">
                        <path d="M9.00296698,1.12569282 C8.27709167,0.399789397 7.31194708,-2.84217094e-14 6.28536887,-2.84217094e-14 C5.25879065,-2.84217094e-14 4.29366012,0.399775342 3.56777075,1.12566471 C2.84185328,1.85156813 2.44210605,2.81669866 2.44210605,3.84329093 C2.44209199,4.67998851 2.70772812,5.47582872 3.19898629,6.13462037 L2.53791776,6.79567484 L0.959715916,5.21747299 C0.74016555,4.99792263 0.384213141,4.99792263 0.164662775,5.21747299 C-0.0548875916,5.4370093 -0.0548875916,5.79297577 0.164662775,6.01252613 L1.74286462,7.59072798 L1.13065065,8.20294195 C0.911114343,8.42247826 0.911114343,8.77844473 1.13065065,8.99798104 C1.35021508,9.21754546 1.70616748,9.2175314 1.92571785,8.99798104 L2.53791776,8.38578112 L4.11613367,9.96398297 C4.33566998,10.1835333 4.69162239,10.1835333 4.91117275,9.96398297 C5.13073717,9.7444326 5.13073717,9.3884802 4.91117275,9.16892983 L3.33297091,7.59074204 L3.99403943,6.92968756 C4.65284514,7.42093168 5.44867129,7.68658186 6.28536887,7.68658186 C7.31194708,7.68658186 8.27706356,7.28680652 9.00296698,6.5609031 C9.7288704,5.83499968 10.1286457,4.86986915 10.1286457,3.84329093 C10.1286457,2.81671272 9.72885635,1.85156813 9.00296698,1.12569282 Z M8.20791384,5.76583591 C7.69439283,6.27935692 7.0116096,6.56218209 6.28536887,6.56218209 C5.55912813,6.56218209 4.87635896,6.27935692 4.36282389,5.76583591 C3.84928883,5.25231489 3.56647771,4.56953167 3.56647771,3.84329093 C3.56647771,3.11702209 3.84928883,2.43425291 4.36282389,1.9207319 C4.87634491,1.40719684 5.55912813,1.12438572 6.28536887,1.12438572 C7.0116096,1.12438572 7.69439283,1.40721089 8.20791384,1.92074596 C8.72143486,2.43426697 9.00426003,3.11703614 9.00426003,3.84327688 C9.00426003,4.56953167 8.72146297,5.25230084 8.20791384,5.76583591 Z" id="形状" transform="translate(5.064323, 5.064323) rotate(-360.000000) translate(-5.064323, -5.064323) "></path>
                    </g>
                </g>
            </g>
        </g>
    </g>
</svg>