<?xml version="1.0" encoding="UTF-8"?>
<svg width="80px" height="19px" viewBox="0 0 80 19" version="1.1" xmlns="http://www.w3.org/2000/svg" xmlns:xlink="http://www.w3.org/1999/xlink">
    <title>logo备份</title>
    <defs>
        <linearGradient x1="18.2098347%" y1="34.8119908%" x2="49.8355686%" y2="47.328365%" id="linearGradient-1">
            <stop stop-color="#14A1FF" offset="0%"></stop>
            <stop stop-color="#A7D4F2" offset="100%"></stop>
        </linearGradient>
        <linearGradient x1="18.2098347%" y1="34.8119908%" x2="49.8355686%" y2="47.328365%" id="linearGradient-2">
            <stop stop-color="#FFFFFF" offset="0%"></stop>
            <stop stop-color="#FFFFFF" offset="100%"></stop>
        </linearGradient>
    </defs>
    <g id="webB" stroke="none" stroke-width="1" fill="none" fill-rule="evenodd">
        <g id="画板" transform="translate(-194.000000, -389.000000)" fill-rule="nonzero">
            <g id="logo备份" transform="translate(194.000000, 389.000000)">
                <path d="M15.3431304,5.20097391 L14.4672699,5.17527771 C13.9840235,5.17527771 5.43674783,6.73489855 5.17096812,14.2366377 L5.17096812,15.0994783 C5.17096812,17.0168696 6.74150725,18.5507246 8.65031884,18.5507246 L10.1966377,18.5507246 C12.1296232,18.5507246 13.676,16.9928696 13.676,15.0994783 L13.676,14.3804638 C13.676,13.9729855 14.0383768,13.6614493 14.4975072,13.6614493 L15.3190145,13.6614493 C17.251942,13.6614493 18.7983188,12.1035362 18.7983188,10.2101449 L18.7983188,8.67623188 C18.8466087,6.73489855 17.2761159,5.20097391 15.3431304,5.20097391 Z" id="路径" fill="#FFFFFF"></path>
                <path d="M12.225971,5.75215072 C13.434029,5.32073623 14.3521739,5.17693333 14.4971594,5.17693333 C14.013913,5.17693333 13.6273623,4.79345507 13.6273623,4.31411014 L13.6273623,3.45128696 C13.6273623,1.53390725 12.0568116,0 10.148,0 L8.60168116,0 C6.66869565,0 5.12233623,1.55787246 5.12233623,3.45128696 L5.12233623,4.17030725 C5.12233623,4.57775072 4.75990725,4.88932754 4.30082899,4.88932754 L3.47932174,4.88932754 C1.54636522,4.88932754 0,6.44718841 0,8.34063768 L0,9.1075942 L0,9.87449275 C0,11.7918841 1.57052754,13.3257971 3.47932174,13.3257971 C3.47932174,13.3257971 4.18001739,13.3737391 4.63909565,12.2952464 C5.94382609,8.34063768 9.83391304,6.49513043 12.225971,5.75215072 Z" id="路径" fill="#FFFFFF"></path>
                <path d="M7.5626087,13.181971 C7.5626087,9.92243478 9.83385507,7.04631884 13.2406957,5.46450435 C10.7278261,6.1355942 5.4122029,8.34057971 5.19474783,14.2365217 L5.19474783,15.0993623 C5.19474783,17.0167536 6.76527536,18.5506667 8.67408696,18.5506667 L9.88214493,18.5506667 C8.40828986,17.0406957 7.5626087,15.1952464 7.5626087,13.181971 Z" id="路径" fill="url(#linearGradient-2)"></path>
                <path d="M25.2976812,15.4349565 C23.847942,15.4828406 23.1230725,14.7878261 23.1714203,13.3737391 L23.1714203,3.13972174 L35.5664928,3.13972174 L35.5664928,4.57775652 L25.3218551,4.57775652 L25.3218551,13.158029 C25.2735072,13.8531014 25.6117681,14.1646957 26.3124638,14.1406957 L35.7598261,14.1406957 L35.7598261,15.4588986 L25.2976812,15.4588986 L25.2976812,15.4349565 Z M35.3732174,13.6613333 C33.2711304,13.205971 31.7731014,12.4869565 30.8790725,11.4803478 C30.1783768,12.4390145 28.5595362,13.158029 25.9742029,13.6613333 L25.9742029,12.5108986 C27.9313043,11.9357101 29.0910725,11.1687536 29.4293913,10.234029 L25.8051014,10.234029 L25.8051014,8.86788406 L29.7193043,8.86788406 C29.7193043,8.72411594 29.7193043,8.58028986 29.7193043,8.46046377 L29.7193043,7.26208696 L28.0521159,7.26208696 C27.5447536,7.7653913 26.7957101,8.07698551 25.8051014,8.24475362 L25.8051014,7.1902029 C26.5782609,6.85466667 27.0615072,6.11165217 27.2547826,4.96123478 L29.2118841,4.96123478 C29.0911304,5.29677681 28.9944348,5.60834783 28.921971,5.872 L34.6725217,5.872 L34.6725217,7.23814493 L31.7972174,7.23814493 L31.7972174,8.31663768 C31.7972174,8.46046377 31.7972174,8.65217391 31.7972174,8.81994203 L35.2524058,8.81994203 L35.2524058,10.186087 L32.0871884,10.186087 C32.7878841,11.2166957 33.8751884,11.9596522 35.3732174,12.4150725 L35.3732174,13.6613333 Z" id="形状" fill="#FFFFFF"></path>
                <path d="M37.1127536,15.8902609 L37.1127536,14.4522319 C37.6443478,13.8051014 37.910087,12.7505507 37.8617971,11.3125217 L37.8617971,3.21155362 L41.9451594,3.21155362 L41.9451594,14.1166957 C41.9935072,15.1472464 41.486087,15.6505507 40.4471304,15.6026667 L39.4564638,15.6026667 L39.4564638,14.4522319 L39.8672464,14.4522319 C40.2537971,14.4522319 40.4229565,14.2604638 40.3746087,13.8769855 L40.3746087,11.4083478 L39.384,11.4083478 C39.4322899,13.4455652 38.6833043,14.9315362 37.1127536,15.8902609 Z M39.4564638,4.45785507 L39.4564638,6.63889855 L40.3746087,6.63889855 L40.3746087,4.45785507 L39.4564638,4.45785507 Z M39.4564638,7.88515942 L39.4564638,10.162087 L40.3746087,10.162087 L40.3746087,7.88515942 L39.4564638,7.88515942 Z M42.2351304,14.9075942 L42.2351304,13.4695652 C43.0324638,12.2472464 43.4915362,10.6413913 43.564,8.67611594 L42.355942,8.67611594 L42.355942,7.4297971 L45.2311884,7.4297971 L45.2311884,8.67611594 C45.1828406,11.5521739 44.1922319,13.6133333 42.2351304,14.9075942 Z M44.3613333,15.6026667 L44.3613333,14.4042899 L44.9412174,14.4042899 C45.4728116,14.4522319 45.7386087,14.1645797 45.6902609,13.6133333 L45.6902609,6.23142029 L42.8633043,6.23142029 L42.8633043,4.86529855 L47.4782609,4.86529855 L47.4782609,13.8290435 C47.5265507,15.0514203 46.8983768,15.6266087 45.641913,15.6026667 L44.3613333,15.6026667 Z M48.7346667,5.20084058 C47.3816232,4.60165797 45.8835362,4.21817971 44.1922319,4.05041159 L44.1922319,2.68427246 C46.1493333,2.82807536 47.6715362,3.11568696 48.7346667,3.4751942 L48.7346667,5.20084058 Z M50.6917681,14.8596522 C48.8071304,13.4935072 47.8889855,11.4562899 47.9373333,8.748 L47.9373333,7.4297971 L48.9762899,7.4297971 C49.6769855,7.47773913 50.2568696,7.35791304 50.7642899,7.09426087 L50.7642899,8.58023188 C50.3052174,8.77194203 49.8944348,8.86782609 49.5561739,8.86782609 C49.5561739,10.6653913 49.9427826,12.1513623 50.715942,13.3257391 L50.715942,14.8596522 L50.6917681,14.8596522 Z" id="形状" fill="#FFFFFF"></path>
                <path d="M52.5277681,15.7224348 L52.5277681,3.25945507 L64.7292754,3.25945507 L64.7292754,13.7811014 C64.777971,15.0753043 64.1252174,15.6984928 62.8208696,15.6744928 L61.2017391,15.6744928 L61.2017391,14.3083478 L61.9507246,14.3083478 C62.4585507,14.3562899 62.675942,14.1405797 62.6515942,13.6852174 L62.6515942,4.7693913 L54.6781449,4.7693913 L54.6781449,15.7464348 L52.5277681,15.7464348 L52.5277681,15.7224348 Z M55.1372174,7.26197101 L55.1372174,5.82394203 L62.2168116,5.82394203 L62.2168116,7.26197101 L55.1372174,7.26197101 Z M55.6929855,13.4935072 L55.6929855,8.29257971 L61.564058,8.29257971 L61.564058,11.671942 C61.6127536,12.9182609 60.96,13.5414493 59.6556522,13.4935072 L55.6929855,13.4935072 Z M57.4809275,12.1033623 L59.1478261,12.1033623 C59.6556522,12.1513043 59.8730435,11.9116522 59.8486957,11.4083478 L59.8486957,9.63472464 L57.4809275,9.63472464 L57.4809275,12.1033623 L57.4809275,12.1033623 Z" id="形状" fill="#FFFFFF"></path>
                <path d="M66.7107246,15.7225507 L66.7107246,14.5242319 C67.5084058,14.2845217 67.8944928,13.7572754 67.8707246,12.9183768 L67.8707246,8.29269565 L66.7107246,8.29269565 L66.7107246,6.85466667 L69.9971014,6.85466667 L69.9971014,12.3911304 C69.9971014,13.6134493 70.6011594,14.2126377 71.8330435,14.2126377 L80,14.2126377 L80,15.5308406 L71.64,15.5308406 C70.48,15.5308406 69.6828986,15.1953043 69.2237681,14.5002319 C68.7402899,15.1233623 67.8944928,15.5308406 66.7107246,15.7225507 Z M68.2086957,5.82405797 C68.0637681,4.98522319 67.7495652,4.02653333 67.2904348,2.97197101 L69.1269565,2.97197101 C69.6342029,3.93066667 69.9727536,4.8653913 70.1657971,5.82405797 L68.2086957,5.82405797 Z M70.4556522,4.91332174 L70.4556522,3.71495652 L72.244058,3.71495652 C72.1715942,3.59512464 72.0991304,3.35544928 72.0023188,2.97197101 C71.9542029,2.85213913 71.9542029,2.78023768 71.9542029,2.73230145 L73.9113043,2.73230145 C73.9594203,2.8042029 73.9837681,2.92404058 74.0318841,3.06784348 C74.08,3.21164638 74.1286957,3.42735072 74.2011594,3.6909913 L76.2063768,3.6909913 C76.3275362,3.42735072 76.4237681,3.0918087 76.4962319,2.70833623 L78.4533333,2.70833623 C78.4052174,3.13974493 78.3327536,3.45131594 78.2121739,3.6909913 L79.8788406,3.6909913 L79.8788406,4.88935652 L76.0857971,4.88935652 C76.0133333,5.27283478 75.9165217,5.5844058 75.795942,5.872 L79.3715942,5.872 L79.3715942,11.3605217 C79.4202899,12.6547826 78.7918841,13.3018551 77.5356522,13.3018551 L70.9147826,13.3018551 L70.9147826,5.872 L73.7901449,5.872 C73.9113043,5.56044058 73.9837681,5.24886377 74.0318841,4.88935652 L70.4556522,4.88935652 L70.4556522,4.91332174 Z M72.8718841,7.09431884 L72.8718841,8.00510145 L77.4144928,8.00510145 L77.4144928,7.09431884 L72.8718841,7.09431884 Z M72.8718841,9.08365217 L72.8718841,9.99437681 L77.4144928,9.99437681 L77.4144928,9.08365217 L72.8718841,9.08365217 Z M72.8718841,12.1035362 L76.737971,12.1035362 C77.2452174,12.1514203 77.4626087,11.8878261 77.4388406,11.3605217 L77.4388406,11.1208696 L72.8962319,11.1208696 L72.8962319,12.1035362 L72.8718841,12.1035362 Z" id="形状" fill="#FFFFFF"></path>
            </g>
        </g>
    </g>
</svg>