<svg xmlns:xlink="http://www.w3.org/1999/xlink" xmlns="http://www.w3.org/2000/svg" version="1.1" viewBox="0 0 22 32" height="32px" width="22px">
    <title>鼠标 (1)</title>
    <defs>
        <linearGradient id="linearGradient-1" y2="0%" x2="50%" y1="100%" x1="50%">
            <stop offset="0%" stop-color="#FEFEFE"></stop>
            <stop offset="100%" stop-color="#FFFFFF"></stop>
        </linearGradient>
    </defs>
    <g fill-rule="evenodd" fill="none" stroke-width="1" stroke="none" id="webB">
        <g fill-rule="nonzero" transform="translate(-107.000000, -357.000000)" id="画板">
            <g transform="translate(107.000000, 357.000000)" id="鼠标-(1)">
                <path fill="url(#linearGradient-1)" id="形状" d="M10.4030426,10.2849385 L10.4030426,9.21291394 C10.4030426,9.21291394 8.08227095,9.14265027 8.08227095,6.9284004 L8.08227095,4.49876342 C8.08227095,4.49876342 8.3720679,2.21308511 10.4030426,2.21308511 L10.4030426,3.14801368e-05 L8.15476012,3.14801368e-05 C3.67116596,3.14801368e-05 0,3.58001562 0,7.9992917 L0,11.4271638 L9.24270469,11.4271638 C10.4030426,11.4271638 10.4030426,10.2849385 10.4030426,10.2849385 L10.4030426,10.2849385 Z M0,23.9995435 C0,28.4186937 3.67116596,32 8.15476012,32 L13.9544369,32 C18.438031,32 22,28.4186937 22,23.9995435 L22,12.5705539 L0,12.5705539 L0,23.9995435 Z M9.31509801,4.57135662 L9.31509801,6.85700345 C9.31509801,7.48777095 9.8341192,7.99922874 10.4742858,7.99922874 L11.6335055,7.99922874 C12.2748861,7.99922874 12.7939712,7.48777095 12.7939712,6.85700345 L12.7939712,4.57135662 C12.7939712,3.94055763 12.2748861,3.4279036 11.6335055,3.4279036 L10.4743497,3.4279036 C9.8341192,3.4279036 9.31509801,3.94052615 9.31509801,4.57135662 Z"></path>
                <path fill="#D3DDFE" id="路径" d="M13.9545008,0 L11.6335375,0 L11.6335375,2.28564683 C11.6335375,2.28564683 13.9544688,2.42844073 13.9544688,4.57135662 L13.9531909,6.85700345 C13.9531909,6.85700345 13.8083404,9.21285098 11.6335375,9.21285098 L11.6455178,10.3632926 C11.6455178,10.3632926 11.6335375,11.391969 12.7940351,11.391969 L22,11.391969 L22,7.99916578 C22,3.58001562 18.4379991,0 13.9544049,0 L13.9545008,0 Z"></path>
            </g>
        </g>
    </g>
</svg>